<?xml version="1.0" encoding="UTF-8" standalone="no"?>
<svg
   xmlns:dc="http://purl.org/dc/elements/1.1/"
   xmlns:cc="http://creativecommons.org/ns#"
   xmlns:rdf="http://www.w3.org/1999/02/22-rdf-syntax-ns#"
   xmlns:svg="http://www.w3.org/2000/svg"
   xmlns="http://www.w3.org/2000/svg"
   xmlns:sodipodi="http://sodipodi.sourceforge.net/DTD/sodipodi-0.dtd"
   xmlns:inkscape="http://www.inkscape.org/namespaces/inkscape"
   inkscape:version="1.0 (4035a4fb49, 2020-05-01)"
   sodipodi:docname="dopper-logo-web.svg"
   viewBox="0 0 714.82935 126.484"
   height="126.484"
   width="714.82935"
   xml:space="preserve"
   id="svg977"
   version="1.1"><metadata
     id="metadata983"><rdf:RDF><cc:Work
         rdf:about=""><dc:format>image/svg+xml</dc:format><dc:type
           rdf:resource="http://purl.org/dc/dcmitype/StillImage" /><dc:title></dc:title></cc:Work></rdf:RDF></metadata><defs
     id="defs981"><clipPath
       id="clipPath993"
       clipPathUnits="userSpaceOnUse"><path
         id="path991"
         d="M 0,94.863 H 536.122 V 0 H 0 Z" /></clipPath></defs><sodipodi:namedview
     inkscape:current-layer="g985"
     inkscape:window-maximized="1"
     inkscape:window-y="-8"
     inkscape:window-x="1912"
     inkscape:cy="94.716467"
     inkscape:cx="333.09363"
     inkscape:zoom="1.8927595"
     showgrid="false"
     id="namedview979"
     inkscape:window-height="1017"
     inkscape:window-width="1920"
     inkscape:pageshadow="2"
     inkscape:pageopacity="0"
     guidetolerance="10"
     gridtolerance="10"
     objecttolerance="10"
     borderopacity="1"
     bordercolor="#666666"
     pagecolor="#ffffff" /><g
     transform="matrix(1.3333333,0,0,-1.3333333,0,126.484)"
     inkscape:label="dopper-logo-web"
     inkscape:groupmode="layer"
     id="g985"><g
       id="g987"><g
         clip-path="url(#clipPath993)"
         id="g989"><g
           transform="translate(482.918,84.668)"
           id="g995"><path
             id="path997"
             style="fill:#1d1d1b;fill-opacity:1;fill-rule:nonzero;stroke:none"
             d="m 0,0 c -20.619,0 -37.403,-16.781 -37.403,-37.406 0,-0.34 0.018,-0.68 0.053,-1.008 h -0.019 v -19.204 h 20.953 v 19.069 c 0.045,0.375 0.07,0.759 0.07,1.143 0,9.019 7.329,16.352 16.346,16.352 6.472,0 12.343,-3.823 14.961,-9.741 0.345,-0.769 0.772,-1.471 1.265,-2.109 L 34.027,-21.89 C 27.952,-8.581 14.655,0 0,0" /></g><g
           transform="translate(515.795,50.118)"
           id="g999"><path
             id="path1001"
             style="fill:#3fa3d7;fill-opacity:1;fill-rule:nonzero;stroke:none"
             d="m 0,0 c 0,0 -3.51,-16.837 -0.637,-22.154 2.883,-5.317 9.721,-7.436 15.139,-4.5 5.429,2.937 7.379,9.817 4.5,15.135 C 16.125,-6.202 0,0 0,0" /></g><g
           transform="translate(391.489,31.025)"
           id="g1003"><path
             id="path1005"
             style="fill:#1d1d1b;fill-opacity:1;fill-rule:nonzero;stroke:none"
             d="M 0,0 C -0.129,0.022 -0.24,0.05 -0.344,0.069 -0.229,0.05 -0.115,0.024 0,0" /></g><g
           transform="translate(393.563,30.75)"
           id="g1007"><path
             id="path1009"
             style="fill:#1d1d1b;fill-opacity:1;fill-rule:nonzero;stroke:none"
             d="M 0,0 C -0.556,0.053 -1.043,0.114 -1.459,0.176 -0.984,0.096 -0.492,0.035 0,0" /></g><g
           transform="translate(394.872,84.741)"
           id="g1011"><path
             id="path1013"
             style="fill:#1d1d1b;fill-opacity:1;fill-rule:nonzero;stroke:none"
             d="m 0,0 c -20.689,0 -37.512,-16.825 -37.512,-37.516 0,-20.448 16.629,-37.279 37.082,-37.509 H 0 7.211 v 20.436 c -2.684,0.141 -6.129,0.352 -8.52,0.598 -0.492,0.035 -0.984,0.097 -1.459,0.176 -0.234,0.029 -0.435,0.062 -0.615,0.101 -0.115,0.022 -0.229,0.05 -0.344,0.069 -0.037,0.016 -0.078,0.029 -0.113,0.032 -7.225,1.723 -12.701,8.306 -12.701,16.099 0,9.123 7.418,16.793 16.541,16.544 3.674,-0.097 6.672,-1.084 9.326,-2.911 3.682,-2.528 6.123,-6.457 6.123,-11.146 0,-6.331 -4.463,-11.599 -10.404,-12.899 v -0.368 c 1.744,-0.023 4.096,0.053 7.293,0.053 h 0.02 23.59 l 0.011,0.006 c 1.037,3.466 1.555,7.078 1.555,10.723 C 37.511,-16.825 20.688,0 0,0" /></g><g
           transform="translate(392.104,30.925)"
           id="g1015"><path
             id="path1017"
             style="fill:#1d1d1b;fill-opacity:1;fill-rule:nonzero;stroke:none"
             d="M 0,0 C -0.205,0.035 -0.414,0.06 -0.615,0.101 -0.434,0.062 -0.234,0.03 0,0" /></g><g
           transform="translate(391.032,31.128)"
           id="g1019"><path
             id="path1021"
             style="fill:#1d1d1b;fill-opacity:1;fill-rule:nonzero;stroke:none"
             d="M 0,0 C 0.035,-0.003 0.076,-0.018 0.113,-0.032 0.076,-0.018 0.035,-0.003 0,0" /></g><g
           transform="translate(28.641,47.2)"
           id="g1023"><path
             id="path1025"
             style="fill:#1d1d1b;fill-opacity:1;fill-rule:nonzero;stroke:none"
             d="M 0,0 C 0,8.962 7.271,16.229 16.23,16.229 25.198,16.229 32.458,8.96 32.458,0 32.458,-8.96 25.198,-16.23 16.23,-16.23 7.271,-16.231 0,-8.962 0,0 m 53.496,0.006 c 0,0.482 -0.018,0.967 -0.035,1.444 V 47.663 H 32.405 v -14.09 c -4.89,2.364 -10.374,3.687 -16.172,3.687 -20.581,0 -37.263,-16.682 -37.263,-37.254 0,-20.578 16.682,-37.26 37.263,-37.26 20.581,0 37.263,16.682 37.263,37.26" /></g><g
           transform="translate(114.973,47.2)"
           id="g1027"><path
             id="path1029"
             style="fill:#1d1d1b;fill-opacity:1;fill-rule:nonzero;stroke:none"
             d="M 0,0 C 0,8.962 7.263,16.229 16.228,16.229 25.19,16.229 32.461,8.96 32.461,0 32.461,-8.96 25.19,-16.23 16.228,-16.23 7.262,-16.231 0,-8.962 0,0 m 53.519,0.154 c 0,20.578 -16.682,37.255 -37.257,37.255 -20.581,0 -37.263,-16.677 -37.263,-37.255 0,-20.577 16.682,-37.26 37.263,-37.26 20.576,0.001 37.257,16.683 37.257,37.26" /></g><g
           transform="translate(203.52,47.346)"
           id="g1031"><path
             id="path1033"
             style="fill:#1d1d1b;fill-opacity:1;fill-rule:nonzero;stroke:none"
             d="M 0,0 C 0,8.938 7.242,16.185 16.178,16.185 25.116,16.185 32.362,8.94 32.362,0 32.362,-8.938 25.116,-16.183 16.177,-16.183 7.242,-16.183 0,-8.938 0,0 m 0.011,-33.577 c 4.89,-2.354 10.374,-3.68 16.166,-3.68 20.575,0 37.257,16.679 37.257,37.257 0,20.578 -16.682,37.26 -37.257,37.26 -20.578,0 -37.254,-16.682 -37.254,-37.26 0,-0.454 0.015,-0.905 0.032,-1.355 v -45.99 H 0.011 Z" /></g><g
           transform="translate(290.749,47.346)"
           id="g1035"><path
             id="path1037"
             style="fill:#1d1d1b;fill-opacity:1;fill-rule:nonzero;stroke:none"
             d="M 0,0 C 0,8.938 7.25,16.185 16.189,16.185 25.127,16.185 32.373,8.94 32.373,0 32.373,-8.938 25.126,-16.183 16.189,-16.183 7.25,-16.183 0,-8.938 0,0 m 0.025,-33.577 c 4.887,-2.354 10.369,-3.68 16.164,-3.68 20.578,0 37.256,16.679 37.256,37.257 0,20.578 -16.678,37.26 -37.256,37.26 -20.576,0 -37.258,-16.682 -37.258,-37.26 0,-0.454 0.018,-0.905 0.038,-1.355 v -45.99 H 0.025 Z" /></g><g
           transform="translate(4.67,78.715)"
           id="g1039"><path
             id="path1041"
             style="fill:#1d1d1b;fill-opacity:1;fill-rule:nonzero;stroke:none"
             d="M 0,0 H 0.744 C 1.594,0 2.32,0.313 2.32,1.113 2.32,1.675 1.904,2.244 0.744,2.244 0.41,2.244 0.179,2.221 0,2.194 Z m 0,-3.583 h -1.031 v 6.471 c 0.542,0.079 1.052,0.155 1.825,0.155 0.984,0 1.626,-0.202 2.013,-0.492 0.387,-0.28 0.598,-0.721 0.598,-1.339 0,-0.85 -0.574,-1.362 -1.266,-1.57 V -0.411 C 2.707,-0.514 3.094,-1.026 3.223,-1.98 3.375,-2.989 3.534,-3.376 3.633,-3.584 H 2.552 C 2.394,-3.376 2.244,-2.781 2.113,-1.929 1.958,-1.11 1.548,-0.798 0.724,-0.798 H 0 Z M 1.084,4.69 c -2.558,0 -4.641,-2.187 -4.641,-4.896 0,-2.754 2.083,-4.922 4.667,-4.922 2.575,-0.026 4.632,2.168 4.632,4.898 0,2.732 -2.057,4.919 -4.632,4.919 z M 1.11,5.597 c 3.167,0 5.695,-2.581 5.695,-5.804 0,-3.27 -2.528,-5.824 -5.722,-5.824 -3.172,10e-4 -5.753,2.556 -5.753,5.825 0,3.223 2.581,5.804 5.754,5.804 H 1.11 Z" /></g></g></g></g></svg>
